# xmcd
#
# Track frame offsets:
#	150
#	11099
#	27957
#	43430
#	58578
#	73328
#	84746
#	94345
#	105492
#	118297
#	131029
#	146087
#	159448
#
# Disc length: 2149 seconds
#
# Revision: 0
# Processed by: cddbd v1.5.1PL0 Copyright (c) Steve Scherf et al.
# Submitted via: EasyCDDAExtractor 7.5.2.1
#
DISCID=c308630d
DTITLE=Teddy Nelson - Honky Tonk Man
DYEAR=2000
DGENRE=Country
TTITLE0=Honky tonk man
TTITLE1=Semi-Truck
TTITLE2=Skilsmisseferd i Hardanger
TTITLE3=Island of love
TTITLE4=I`m walking in the sunshine
TTITLE5=You can call me a cheater
TTITLE6=Why do you keep on hurting me
TTITLE7=Boxcar Wayne
TTITLE8=Memories
TTITLE9=Don't you knock on the door
TTITLE10=Jack Corey
TTITLE11=It may rain
TTITLE12=Another Bottle
EXTD=
EXTT0=
EXTT1=
EXTT2=
EXTT3=
EXTT4=
EXTT5=
EXTT6=
EXTT7=
EXTT8=
EXTT9=
EXTT10=
EXTT11=
EXTT12=
PLAYORDER=
